# xmcd
#
# Track frame offsets: 
#        150
#        66365
#        108887
#        121335
#        204192
#
# Disc length: 3001 seconds
#
# Revision: 1
# Processed by: cddbd v1.5.2PL0 Copyright (c) Steve Scherf et al.
# Submitted via: ExactAudioCopy v0.95b3
#
DISCID=3d0bb705
DTITLE=Sun Ra and Intergalactic Infinity Arkestra - It's After The End O
DTITLE=f The World (Remaster)
DYEAR=1970
DGENRE=Jazz
TTITLE0=Strange Dreams - Strange Worlds - Black Myth - It's After The 
TTITLE0=End Of The World (Live)
TTITLE1=Black Forest Myth (Live)
TTITLE2=Watusi, Egyptian March (Live)
TTITLE3=Myth Versus Reality (The Myth - Science Aproach) - Angelic Pro
TTITLE3=clamation - Out In Space (Live)
TTITLE4=Duos (Live)
EXTD=YEAR: 2003
EXTT0=
EXTT1=
EXTT2=
EXTT3=
EXTT4=
PLAYORDER=
